<svg id="Capa_1" enable-background="new 0 0 509.94 509.94" height="512" viewBox="0 0 509.94 509.94" width="512" xmlns="http://www.w3.org/2000/svg"><g><path d="m297.17 196v10.84h-54.17v303.1h-43.33l-10.406-219.94 10.406-245.71z" fill="#fb3"/><path d="m199.67 44.29v465.65h-43.33v-303.1h-54.17v-10.84z" fill="#ffd944"/><path d="m235.56 361.62-14.71 22.07c-20.44 30.66-54.42 49.18-91.18 49.8l-6.25-65.99 6.25-66c19.82 0 39.26 6.82 54.74 19.2z" fill="#d6e9f8"/><path d="m129.67 301.5v131.99c-.63 0-1.26.01-1.89.01-41.39 0-79.21-22.69-98.69-59.21l-6.32-11.86 52.16-41.73c15.48-12.38 34.92-19.2 54.74-19.2z" fill="#e9f3fb"/><path d="m479.67 44.2c0 37.61-17.47 73.08-47.27 96.01l-42.73 32.87-10.069-70.635 10.069-67.825 7.89-13.16c3.99-6.66 9.59-12.02 16.13-15.72s14.02-5.74 21.78-5.74c12.2 0 23.26 4.95 31.25 12.95 8 7.99 12.95 19.05 12.95 31.25z" fill="#e40058"/><path d="m389.67 34.62v138.46l-42.73-32.87c-14.9-11.47-26.72-26.07-34.81-42.5s-12.46-34.71-12.46-53.51c0-12.2 4.95-23.26 12.95-31.25 7.99-8 19.05-12.95 31.25-12.95 15.53 0 29.92 8.15 37.91 21.46z" fill="#ff6379"/><path d="m487.17 380.33v10.84h-54.17v118.77h-43.33l-25.04-114.94 25.04-166.38z" fill="#5f55ae"/><path d="m389.67 228.62v281.32h-43.33v-118.77h-54.17v-10.84z" fill="#6e76e4"/><path d="m184.67 340c0 30.33-24.67 55-55 55l-14.188-46.75 14.188-46.75c17.87 0 35.41 5.56 50.04 15.72 3.18 6.95 4.96 14.66 4.96 22.78z" fill="#5f55ae"/><path d="m129.67 301.5v93.5c-30.33 0-55-24.67-55-55 0-8.12 1.78-15.83 4.96-22.78 14.63-10.16 32.17-15.72 50.04-15.72z" fill="#6e76e4"/></g></svg>